<?xml version="1.0" encoding="UTF-8"?>
<svg version="1.2" viewBox="0 0 5000 5000" xmlns="http://www.w3.org/2000/svg" xmlns:xlink="http://www.w3.org/1999/xlink">
  <path fill="#fff" stroke="none" d="M 94,946 C 827,946 1463,946 2196,946 2381,946 2750,1031 2999,1200 3186,1326 3288,1403 3388,1606 3507,1846 3501,2094 3466,2332 3249,2249 3061,2179 2844,2096 2438,2003 2165,2026 2006,2148 1837,2263 1761,2388 1608,2672 1207,2444 879,2205 665,1993 373,1704 212,1376 44,946 61,946 77,946 94,946 Z"/>
  <path fill="#fff" stroke="none" d="M 1064,3914 C 1647,3914 2240,3914 2823,3914 2800,3719 2778,3601 2703,3467 2591,3265 2452,3153 2250,3021 2048,2889 1821,2785 1607,2672 1419,3097 1257,3468 1069,3893 1086,3893 1047,3914 1064,3914 Z"/>
  <path fill="#fff" stroke="none" d="M 4948,2909 C 4365,2909 3725,2907 3142,2907 3209,2807 3282,2725 3346,2623 3393,2523 3429,2501 3466,2332 3933,2515 4481,2726 4948,2909 Z"/>
  <path fill="#fff" stroke="none" d="M 2939,2288 C 3046,2288 3128,2371 3128,2480 3128,2589 3046,2672 2939,2672 2832,2672 2750,2589 2750,2480 2750,2371 2832,2288 2939,2288 Z M 2750,2288 L 2750,2288 Z M 3129,2673 L 3129,2673 Z"/>
</svg>
